<svg width="44" height="44" viewBox="0 0 44 44" fill="none" xmlns="http://www.w3.org/2000/svg">
<path d="M22.0001 3.66675C19.5925 3.66675 17.2085 4.14095 14.9842 5.06229C12.7599 5.98363 10.7389 7.33405 9.03646 9.03646C5.59829 12.4746 3.66675 17.1378 3.66675 22.0001C3.66675 30.1034 8.92842 36.9784 16.2067 39.4167C17.1234 39.5634 17.4167 38.9951 17.4167 38.5001V35.4017C12.3384 36.5017 11.2567 32.9451 11.2567 32.9451C10.4134 30.8184 9.22175 30.2501 9.22175 30.2501C7.55342 29.1134 9.35008 29.1501 9.35008 29.1501C11.1834 29.2784 12.1551 31.0384 12.1551 31.0384C13.7501 33.8251 16.4451 33.0001 17.4901 32.5601C17.6551 31.3684 18.1317 30.5617 18.6451 30.1034C14.5751 29.6451 10.3034 28.0684 10.3034 21.0834C10.3034 19.0484 11.0001 17.4167 12.1917 16.1151C12.0084 15.6567 11.3667 13.7501 12.3751 11.2751C12.3751 11.2751 13.9151 10.7801 17.4167 13.1451C18.8651 12.7417 20.4417 12.5401 22.0001 12.5401C23.5584 12.5401 25.1351 12.7417 26.5834 13.1451C30.0851 10.7801 31.6251 11.2751 31.6251 11.2751C32.6334 13.7501 31.9917 15.6567 31.8084 16.1151C33.0001 17.4167 33.6967 19.0484 33.6967 21.0834C33.6967 28.0867 29.4067 29.6267 25.3184 30.0851C25.9784 30.6534 26.5834 31.7717 26.5834 33.4767V38.5001C26.5834 38.9951 26.8767 39.5817 27.8117 39.4167C35.0901 36.9601 40.3334 30.1034 40.3334 22.0001C40.3334 19.5925 39.8592 17.2085 38.9379 14.9842C38.0165 12.7599 36.6661 10.7389 34.9637 9.03646C33.2613 7.33405 31.2402 5.98363 29.0159 5.06229C26.7916 4.14095 24.4076 3.66675 22.0001 3.66675Z" fill="#C6BCBA"/>
</svg>
